<?xml version="1.0" encoding="utf-8"?>
<!-- Svg Vector Icons : http://www.onlinewebfonts.com/icon -->
<!DOCTYPE svg PUBLIC "-//W3C//DTD SVG 1.1//EN" "http://www.w3.org/Graphics/SVG/1.1/DTD/svg11.dtd">
<svg version="1.1" xmlns="http://www.w3.org/2000/svg" xmlns:xlink="http://www.w3.org/1999/xlink" x="0px" y="0px" viewBox="0 0 1000 1000" enable-background="new 0 0 1000 1000" xml:space="preserve">
<metadata> Svg Vector Icons : http://www.onlinewebfonts.com/icon </metadata>
<g><g transform="translate(0.000000,511.000000) scale(0.100000,-0.100000)"><path d="M1201.1,2764.9c-70.8-30.6-134-99.5-160.8-170.3c-15.3-38.3-21.1-779-21.1-2379V-2108H581c-505.3,0-490,5.7-476.6-162.7c9.6-112.9,45.9-179.9,137.8-246.9c51.7-40.2,59.3-40.2,2815.4-45.9l2763.7-3.8l-26.8,67c-21.1,47.9-28.7,149.3-28.7,382.8v315.8H3545.7H1325.5V341.9v2143.6h3368.5h3368.5v-306.2V1873h155h153.1l-5.7,361.7c-5.7,396.2-11.5,413.4-137.8,507.2l-51.7,40.2L4717,2786C1863.3,2789.8,1249,2786,1201.1,2764.9z M5383.1-2132.8c0-15.3-23-45.9-49.8-72.7l-49.8-45.9h-589.5h-589.5l-49.8,45.9c-103.3,97.6-103.3,97.6,639.3,97.6C5252.9-2108,5383.1-2111.8,5383.1-2132.8z"/><path d="M5984.1,1654.9l-65.1-65.1V-423.7v-2013.5l65.1-65.1l65.1-65.1H7075h1025.9l-19.1,49.8c-11.5,26.8-19.1,147.4-19.1,267.9v218.2h-957h-957v1684.3v1684.3h1378h1378v-268V801.2h114.8h114.8v394.3v394.3l-65.1,65.1l-65.1,65.1H7526.7H6049.1L5984.1,1654.9z M7603.3-2222.8c21-21.1,38.3-55.5,38.3-76.6c0-21.1-17.2-55.5-38.3-76.6c-21-21.1-55.5-38.3-76.6-38.3s-55.5,17.2-76.6,38.3c-21,21.1-38.3,55.5-38.3,76.6c0,21,17.2,55.5,38.3,76.6c21,21.1,55.5,38.3,76.6,38.3S7582.2-2201.7,7603.3-2222.8z"/><path d="M8263.6,600.3l-47.9-45.9V-959.6v-1513.9l47.9-45.9l45.9-47.8h748.3h748.3l45.9,47.8l47.9,45.9v1513.9V554.3l-47.9,45.9l-45.9,47.9h-748.3h-748.3L8263.6,600.3z M9651.2-883v-1148.4h-612.5h-612.5V-883V265.3h612.5h612.5V-883z M9134.4-2222.8c21-21.1,38.3-55.5,38.3-76.6c0-21.1-17.2-55.5-38.3-76.6c-21.1-21.1-55.5-38.3-76.6-38.3s-55.5,17.2-76.6,38.3c-21,21.1-38.3,55.5-38.3,76.6c0,21,17.2,55.5,38.3,76.6c21.1,21.1,55.5,38.3,76.6,38.3S9113.4-2201.7,9134.4-2222.8z"/></g></g>
</svg>