<?xml version="1.0" encoding="UTF-8"?>
<!DOCTYPE svg PUBLIC "-//W3C//DTD SVG 1.1//EN" "http://www.w3.org/Graphics/SVG/1.1/DTD/svg11.dtd">
<svg xmlns="http://www.w3.org/2000/svg" version="1.1" width="400px" height="342px" style="shape-rendering:geometricPrecision; text-rendering:geometricPrecision; image-rendering:optimizeQuality; fill-rule:evenodd; clip-rule:evenodd" xmlns:xlink="http://www.w3.org/1999/xlink">
<g><path style="opacity:0.894" fill="#2495ed" d="M 201.5,-0.5 C 212.5,-0.5 223.5,-0.5 234.5,-0.5C 234.666,8.83928 234.5,18.1726 234,27.5C 233.5,28 233,28.5 232.5,29C 222.833,29.6667 213.167,29.6667 203.5,29C 202.692,28.6924 202.025,28.1924 201.5,27.5C 200.193,18.1669 200.193,8.8336 201.5,-0.5 Z"/></g>
<g><path style="opacity:0.914" fill="#2495ed" d="M 126.5,33.5 C 137.172,33.3335 147.839,33.5002 158.5,34C 159.651,43.4223 159.818,52.9223 159,62.5C 148.577,63.6524 138.077,63.8191 127.5,63C 126.514,53.2496 126.181,43.4163 126.5,33.5 Z"/></g>
<g><path style="opacity:0.891" fill="#2495ed" d="M 164.5,33.5 C 175.172,33.3335 185.839,33.5002 196.5,34C 197.823,43.4701 197.823,52.9701 196.5,62.5C 185.833,63.8333 175.167,63.8333 164.5,62.5C 163.169,52.8035 163.169,43.1369 164.5,33.5 Z"/></g>
<g><path style="opacity:0.893" fill="#2495ed" d="M 201.5,33.5 C 212.172,33.3335 222.839,33.5002 233.5,34C 234.651,43.4223 234.818,52.9223 234,62.5C 223.577,63.6524 213.077,63.8191 202.5,63C 201.874,62.2496 201.374,61.4162 201,60.5C 200.252,51.4653 200.419,42.4653 201.5,33.5 Z"/></g>
<g><path style="opacity:0.967" fill="#2495ed" d="M 301.5,40.5 C 316.514,47.3511 325.847,58.8511 329.5,75C 339.243,73.9069 348.91,74.5736 358.5,77C 364.893,78.0567 368.393,81.5567 369,87.5C 364.22,98.9463 356.054,107.113 344.5,112C 337.23,113.823 329.897,115.323 322.5,116.5C 300.276,176.54 257.276,210.373 193.5,218C 178.5,218.667 163.5,218.667 148.5,218C 107.369,216.056 80.8695,195.556 69,156.5C 64.4777,140.799 62.811,124.799 64,108.5C 65.1217,106.376 66.6217,104.543 68.5,103C 141.5,102 214.5,101 287.5,100C 290.244,99.1965 292.911,98.1965 295.5,97C 292.7,92.9416 290.866,88.4416 290,83.5C 288.243,67.615 292.076,53.2817 301.5,40.5 Z"/></g>
<g><path style="opacity:0.863" fill="#2495ed" d="M 90.5,67.5 C 100.839,67.3335 111.172,67.5002 121.5,68C 122.651,77.4223 122.818,86.9223 122,96.5C 121.5,97 121,97.5 120.5,98C 115.667,98.1667 110.833,98.3333 106,98.5C 100.393,98.6198 94.8932,98.1198 89.5,97C 88.3497,87.9113 88.183,78.7447 89,69.5C 89.7172,68.9558 90.2172,68.2891 90.5,67.5 Z"/></g>
<g><path style="opacity:0.885" fill="#2495ed" d="M 127.5,67.5 C 137.839,67.3335 148.172,67.5002 158.5,68C 159.651,77.4223 159.818,86.9223 159,96.5C 158.5,97 158,97.5 157.5,98C 147.453,98.8082 137.453,98.6415 127.5,97.5C 126.194,87.4396 126.194,77.4396 127.5,67.5 Z"/></g>
<g><path style="opacity:0.862" fill="#2495ed" d="M 164.5,67.5 C 175.187,67.168 185.854,67.5013 196.5,68.5C 197.64,77.7855 197.806,87.1188 197,96.5C 196.5,97 196,97.5 195.5,98C 185.5,98.6667 175.5,98.6667 165.5,98C 165,97.5 164.5,97 164,96.5C 163.218,86.7862 163.385,77.1196 164.5,67.5 Z"/></g>
<g><path style="opacity:0.864" fill="#2495ed" d="M 202.5,67.5 C 212.839,67.3335 223.172,67.5002 233.5,68C 234.651,77.4223 234.818,86.9223 234,96.5C 233.5,97 233,97.5 232.5,98C 222.453,98.8082 212.453,98.6415 202.5,97.5C 201.808,96.9747 201.308,96.3081 201,95.5C 200.333,87.1667 200.333,78.8333 201,70.5C 201.513,69.4734 202.013,68.4734 202.5,67.5 Z"/></g>
<g><path style="opacity:0.863" fill="#2495ed" d="M 239.5,67.5 C 249.839,67.3335 260.172,67.5002 270.5,68C 271,68.5 271.5,69 272,69.5C 272.667,78.5 272.667,87.5 272,96.5C 271.25,97.1258 270.416,97.6258 269.5,98C 259.833,98.6667 250.167,98.6667 240.5,98C 240,97.5 239.5,97 239,96.5C 238.194,86.756 238.361,77.0893 239.5,67.5 Z"/></g>
<g><path style="opacity:0.862" fill="#2495ed" d="M 43.5,341.5 C 36.5,341.5 29.5,341.5 22.5,341.5C 11.8333,336.833 4.16667,329.167 -0.5,318.5C -0.5,311.167 -0.5,303.833 -0.5,296.5C 7.10262,279.19 20.436,271.357 39.5,273C 44.4027,273.869 48.9027,275.702 53,278.5C 53.3333,268.5 53.6667,258.5 54,248.5C 57.5454,242.791 61.8787,242.125 67,246.5C 68.1462,257.74 68.6462,269.074 68.5,280.5C 68.6144,292.879 68.1144,305.212 67,317.5C 63.0083,329.324 55.175,337.324 43.5,341.5 Z M 28.5,287.5 C 45.9793,286.812 54.146,295.145 53,312.5C 46.6253,327.432 36.1253,331.265 21.5,324C 10.8333,313 10.8333,302 21.5,291C 23.9252,289.787 26.2585,288.621 28.5,287.5 Z"/></g>
<g><path style="opacity:0.852" fill="#2495ed" d="M 270.5,341.5 C 267.5,341.5 264.5,341.5 261.5,341.5C 252.137,330.973 242.637,320.64 233,310.5C 231.018,310.99 229.351,311.99 228,313.5C 227.667,321.167 227.333,328.833 227,336.5C 226.634,338.452 225.801,340.118 224.5,341.5C 221.5,341.5 218.5,341.5 215.5,341.5C 214.878,340.373 214.045,339.373 213,338.5C 212.333,308.167 212.333,277.833 213,247.5C 218.628,241.911 223.294,242.577 227,249.5C 227.333,264.833 227.667,280.167 228,295.5C 239.58,287.625 251.413,280.125 263.5,273C 266.257,272.218 268.757,272.718 271,274.5C 272.483,277.702 272.817,281.036 272,284.5C 263.586,290.291 255.086,295.957 246.5,301.5C 254.108,311.278 262.274,320.611 271,329.5C 273.138,333.682 272.971,337.682 270.5,341.5 Z"/></g>
<g><path style="opacity:0.861" fill="#2495ed" d="M 118.5,341.5 C 111.5,341.5 104.5,341.5 97.5,341.5C 76.6297,332.422 69.1297,316.755 75,294.5C 87.7684,272.207 105.602,267.04 128.5,279C 143.773,292.921 146.607,309.088 137,327.5C 132.044,333.98 125.877,338.647 118.5,341.5 Z M 102.5,287.5 C 117.28,286.285 125.947,292.952 128.5,307.5C 124.553,324.804 114.219,330.638 97.5,325C 85.4717,315.092 84.4717,304.092 94.5,292C 97.3538,290.603 100.02,289.103 102.5,287.5 Z"/></g>
<g><path style="opacity:0.851" fill="#2495ed" d="M 192.5,341.5 C 185.5,341.5 178.5,341.5 171.5,341.5C 149.257,330.98 142.423,313.98 151,290.5C 164.753,271.772 181.92,267.938 202.5,279C 207.339,282.194 208.506,286.361 206,291.5C 204.316,293.066 202.316,294.066 200,294.5C 195.863,292.384 191.696,290.218 187.5,288C 172.705,286.292 164.038,292.792 161.5,307.5C 164.006,322.169 172.673,328.669 187.5,327C 191.481,324.67 195.648,322.836 200,321.5C 206.154,322.618 208.154,326.285 206,332.5C 202.118,336.571 197.618,339.571 192.5,341.5 Z"/></g>
<g><path style="opacity:0.868" fill="#2495ed" d="M 318.5,341.5 C 311.167,341.5 303.833,341.5 296.5,341.5C 273.352,329.957 267.186,312.29 278,288.5C 288.911,273.975 303.078,269.475 320.5,275C 335.724,281.947 342.891,293.78 342,310.5C 341.535,311.931 340.701,313.097 339.5,314C 322.5,314.333 305.5,314.667 288.5,315C 293.827,325.163 302.161,329.163 313.5,327C 317.132,325.516 320.466,323.516 323.5,321C 332.062,320.565 334.895,324.398 332,332.5C 328.118,336.571 323.618,339.571 318.5,341.5 Z M 302.5,287.5 C 313.463,286.147 321.463,290.314 326.5,300C 313.833,300.667 301.167,300.667 288.5,300C 291.498,293.829 296.164,289.662 302.5,287.5 Z"/></g>
<g><path style="opacity:0.856" fill="#2495ed" d="M 399.5,277.5 C 399.5,280.5 399.5,283.5 399.5,286.5C 397.678,288.16 395.511,289.16 393,289.5C 379.22,284.398 369.22,288.398 363,301.5C 362.667,312.833 362.333,324.167 362,335.5C 361.427,337.641 360.594,339.641 359.5,341.5C 356.167,341.5 352.833,341.5 349.5,341.5C 349.539,340.244 349.039,339.244 348,338.5C 347.333,317.833 347.333,297.167 348,276.5C 353.671,270.806 358.504,271.472 362.5,278.5C 374.759,271 387.092,270.667 399.5,277.5 Z"/></g>
<g><path style="opacity:0.391" fill="#2495ed" d="M 379.5,341.5 C 377.167,341.5 374.833,341.5 372.5,341.5C 369.005,336.116 370.338,332.782 376.5,331.5C 381.151,332.193 382.651,334.859 381,339.5C 380.283,340.044 379.783,340.711 379.5,341.5 Z"/></g>
</svg>
