<?xml version="1.0" encoding="UTF-8"?>
<!DOCTYPE svg PUBLIC "-//W3C//DTD SVG 1.1//EN" "http://www.w3.org/Graphics/SVG/1.1/DTD/svg11.dtd">
<svg xmlns="http://www.w3.org/2000/svg" version="1.1" width="799px" height="244px" style="shape-rendering:geometricPrecision; text-rendering:geometricPrecision; image-rendering:optimizeQuality; fill-rule:evenodd; clip-rule:evenodd" xmlns:xlink="http://www.w3.org/1999/xlink">
<g><path style="opacity:0.989" fill="#dc524a" d="M 657.5,-0.5 C 670.167,-0.5 682.833,-0.5 695.5,-0.5C 700.268,1.10674 705.268,2.27341 710.5,3C 713.374,3.94249 716.04,5.10915 718.5,6.5C 718.5,16.5 718.5,26.5 718.5,36.5C 689.833,36.5 661.167,36.5 632.5,36.5C 631.725,41.7968 631.392,47.1301 631.5,52.5C 629.97,61.2878 629.303,70.2878 629.5,79.5C 628.627,83.7685 628.294,88.1018 628.5,92.5C 626.783,100.804 626.45,109.137 627.5,117.5C 630.472,119.322 633.472,121.156 636.5,123C 639.849,123.388 643.183,123.221 646.5,122.5C 656.148,121.755 665.815,121.422 675.5,121.5C 698.529,124.875 707.029,137.875 701,160.5C 698.288,169.548 692.454,175.714 683.5,179C 662.885,183.631 643.218,181.131 624.5,171.5C 624.44,170.957 624.107,170.624 623.5,170.5C 622.5,190.155 622.167,209.822 622.5,229.5C 587.234,211.685 565.4,183.351 557,144.5C 549.01,80.6333 573.844,34.7999 631.5,7C 640.12,3.91921 648.786,1.41921 657.5,-0.5 Z"/></g>
<g><path style="opacity:0.987" fill="#25a162" d="M 718.5,6.5 C 752.828,18.6573 776.994,41.6573 791,75.5C 794.082,84.1312 796.582,92.7979 798.5,101.5C 798.5,114.5 798.5,127.5 798.5,140.5C 789.175,186.674 762.508,218.508 718.5,236C 705.3,239.951 691.967,242.451 678.5,243.5C 677.833,243.5 677.167,243.5 676.5,243.5C 662.685,242.545 649.019,240.045 635.5,236C 631.019,233.91 626.686,231.743 622.5,229.5C 623.495,218.346 623.828,207.012 623.5,195.5C 644.853,203.866 666.853,205.699 689.5,201C 713.64,194.212 727.14,178.379 730,153.5C 731.737,123.472 717.903,105.306 688.5,99C 678.133,98.2397 667.799,98.4063 657.5,99.5C 656.167,99.5 654.833,99.5 653.5,99.5C 653.5,95.8333 653.5,92.1667 653.5,88.5C 653.728,81.4491 654.395,74.4491 655.5,67.5C 656.468,65.3926 656.802,63.0593 656.5,60.5C 677.34,60.8305 698.007,60.4972 718.5,59.5C 718.5,51.8333 718.5,44.1667 718.5,36.5C 718.5,26.5 718.5,16.5 718.5,6.5 Z"/></g>
<g><path style="opacity:0.807" fill="#747474" d="M 405.5,32.5 C 412.251,33.7978 415.584,37.9645 415.5,45C 415.536,51.4499 412.536,55.6165 406.5,57.5C 400.319,55.7215 397.652,51.5549 398.5,45C 397.849,38.9182 400.183,34.7516 405.5,32.5 Z"/></g>
<g><path style="opacity:0.831" fill="#757575" d="M 29.5,243.5 C 20.8333,243.5 12.1667,243.5 3.5,243.5C 2.32855,242.655 0.995216,241.989 -0.5,241.5C -0.5,237.5 -0.5,233.5 -0.5,229.5C 10.7013,232.618 21.7013,232.118 32.5,228C 36.4906,225.011 39.324,221.178 41,216.5C 42.4731,156.195 42.9731,95.8615 42.5,35.5C 47.1667,35.5 51.8333,35.5 56.5,35.5C 56.6667,93.1676 56.5,150.834 56,208.5C 55.1269,226.502 46.2935,238.169 29.5,243.5 Z"/></g>
<g><path style="opacity:0.869" fill="#747474" d="M 98.5,35.5 C 102.833,35.5 107.167,35.5 111.5,35.5C 111.333,73.5015 111.5,111.501 112,149.5C 113.088,169.561 122.922,183.061 141.5,190C 157.515,194.766 173.181,193.766 188.5,187C 197.597,181.904 203.763,174.404 207,164.5C 208.722,158.282 209.722,151.949 210,145.5C 210.5,108.835 210.667,72.1682 210.5,35.5C 214.833,35.5 219.167,35.5 223.5,35.5C 223.667,75.5014 223.5,115.501 223,155.5C 219.401,177.098 207.568,192.265 187.5,201C 165.429,208.218 144.095,206.551 123.5,196C 109.676,186.87 101.509,174.037 99,157.5C 98.5,116.835 98.3333,76.168 98.5,35.5 Z"/></g>
<g><path style="opacity:1" fill="#fdfdfd" d="M 718.5,36.5 C 718.5,44.1667 718.5,51.8333 718.5,59.5C 697.5,59.5 676.5,59.5 655.5,59.5C 655.5,62.1667 655.5,64.8333 655.5,67.5C 654.395,74.4491 653.728,81.4491 653.5,88.5C 652.517,92.2984 652.183,96.2984 652.5,100.5C 654.415,100.784 656.081,100.451 657.5,99.5C 667.799,98.4063 678.133,98.2397 688.5,99C 717.903,105.306 731.737,123.472 730,153.5C 727.14,178.379 713.64,194.212 689.5,201C 666.853,205.699 644.853,203.866 623.5,195.5C 623.174,187.316 623.508,179.316 624.5,171.5C 643.218,181.131 662.885,183.631 683.5,179C 692.454,175.714 698.288,169.548 701,160.5C 707.029,137.875 698.529,124.875 675.5,121.5C 671.849,120.835 668.015,120.501 664,120.5C 657.926,120.341 652.092,121.007 646.5,122.5C 643.183,123.221 639.849,123.388 636.5,123C 633.472,121.156 630.472,119.322 627.5,117.5C 628.185,109.184 628.518,100.851 628.5,92.5C 628.294,88.1018 628.627,83.7685 629.5,79.5C 631.03,70.7122 631.697,61.7122 631.5,52.5C 631.392,47.1301 631.725,41.7968 632.5,36.5C 661.167,36.5 689.833,36.5 718.5,36.5 Z"/></g>
<g><path style="opacity:0.831" fill="#747474" d="M 458.5,48.5 C 461.167,48.5 463.833,48.5 466.5,48.5C 466.5,58.1667 466.5,67.8333 466.5,77.5C 478.171,77.3335 489.838,77.5001 501.5,78C 502.46,81.73 502.793,85.5633 502.5,89.5C 490.5,89.5 478.5,89.5 466.5,89.5C 466.333,117.835 466.5,146.169 467,174.5C 467.407,184.153 472.241,190.32 481.5,193C 489.558,193.493 497.558,192.993 505.5,191.5C 505.5,195.167 505.5,198.833 505.5,202.5C 492.296,206.981 479.296,206.481 466.5,201C 457.846,194.423 453.346,185.59 453,174.5C 452.5,146.169 452.333,117.835 452.5,89.5C 446.5,89.5 440.5,89.5 434.5,89.5C 434.223,86.5525 434.556,83.7191 435.5,81C 441.55,79.7605 447.384,77.9272 453,75.5C 455.251,66.5686 457.084,57.5686 458.5,48.5 Z"/></g>
<g><path style="opacity:1" fill="#68be93" d="M 718.5,59.5 C 698.007,60.4972 677.34,60.8305 656.5,60.5C 656.802,63.0593 656.468,65.3926 655.5,67.5C 655.5,64.8333 655.5,62.1667 655.5,59.5C 676.5,59.5 697.5,59.5 718.5,59.5 Z"/></g>
<g><path style="opacity:1" fill="#f4c0bd" d="M 631.5,52.5 C 631.697,61.7122 631.03,70.7122 629.5,79.5C 629.303,70.2878 629.97,61.2878 631.5,52.5 Z"/></g>
<g><path style="opacity:0.852" fill="#747474" d="M 316.5,75.5 C 343.328,74.4664 358.494,87.1331 362,113.5C 362.5,143.165 362.667,172.831 362.5,202.5C 358.167,202.5 353.833,202.5 349.5,202.5C 349.667,174.165 349.5,145.831 349,117.5C 348.135,96.9672 337.469,87.3005 317,88.5C 291.885,87.9441 278.552,100.277 277,125.5C 276.5,151.165 276.333,176.831 276.5,202.5C 272.167,202.5 267.833,202.5 263.5,202.5C 263.333,161.165 263.5,119.832 264,78.5C 267.667,77.1667 271.333,77.1667 275,78.5C 275.93,83.7993 276.597,89.1327 277,94.5C 283.406,85.1115 292.239,79.2781 303.5,77C 308.019,76.8247 312.353,76.3247 316.5,75.5 Z"/></g>
<g><path style="opacity:0.79" fill="#747474" d="M 400.5,77.5 C 404.767,77.203 408.934,77.5363 413,78.5C 413.5,119.832 413.667,161.165 413.5,202.5C 408.833,202.5 404.167,202.5 399.5,202.5C 399.173,160.761 399.506,119.094 400.5,77.5 Z"/></g>
<g><path style="opacity:1" fill="#7ac59d" d="M 653.5,88.5 C 653.5,92.1667 653.5,95.8333 653.5,99.5C 654.833,99.5 656.167,99.5 657.5,99.5C 656.081,100.451 654.415,100.784 652.5,100.5C 652.183,96.2984 652.517,92.2984 653.5,88.5 Z"/></g>
<g><path style="opacity:1" fill="#f7d0cd" d="M 628.5,92.5 C 628.518,100.851 628.185,109.184 627.5,117.5C 626.45,109.137 626.783,100.804 628.5,92.5 Z"/></g>
<g><path style="opacity:1" fill="#e47770" d="M 675.5,121.5 C 665.815,121.422 656.148,121.755 646.5,122.5C 652.092,121.007 657.926,120.341 664,120.5C 668.015,120.501 671.849,120.835 675.5,121.5 Z"/></g>
<g><path style="opacity:0.998" fill="#d08e81" d="M 624.5,171.5 C 623.508,179.316 623.174,187.316 623.5,195.5C 623.828,207.012 623.495,218.346 622.5,229.5C 622.167,209.822 622.5,190.155 623.5,170.5C 624.107,170.624 624.44,170.957 624.5,171.5 Z"/></g>
</svg>
