<?xml version="1.0" encoding="UTF-8"?>
<!DOCTYPE svg PUBLIC "-//W3C//DTD SVG 1.1//EN" "http://www.w3.org/Graphics/SVG/1.1/DTD/svg11.dtd">
<svg xmlns="http://www.w3.org/2000/svg" version="1.1" width="400px" height="200px" style="shape-rendering:geometricPrecision; text-rendering:geometricPrecision; image-rendering:optimizeQuality; fill-rule:evenodd; clip-rule:evenodd" xmlns:xlink="http://www.w3.org/1999/xlink">
<g><path style="opacity:0.98" fill="#405d2c" d="M 318.5,37.5 C 318.489,39.0174 317.823,40.1841 316.5,41C 318.708,41.1909 320.708,41.6909 322.5,42.5C 318.958,42.1872 315.625,42.5206 312.5,43.5C 311.167,43.5 309.833,43.5 308.5,43.5C 307.127,43.3433 305.793,43.51 304.5,44C 304.833,44.3333 305.167,44.6667 305.5,45C 304,45.8333 302.833,47 302,48.5C 301.517,47.552 301.351,46.552 301.5,45.5C 299.801,45.6602 298.134,45.4935 296.5,45C 298.481,44.3946 298.815,43.3946 297.5,42C 298.449,41.3828 299.282,41.5494 300,42.5C 300.684,41.2161 300.517,40.0495 299.5,39C 301.235,37.0155 302.568,37.3488 303.5,40C 307.5,40.6667 311.5,40.6667 315.5,40C 316.373,38.955 317.373,38.1217 318.5,37.5 Z"/></g>
<g><path style="opacity:0.988" fill="#323846" d="M 346.5,44.5 C 345.292,45.2341 343.959,45.5674 342.5,45.5C 341.833,44.8333 341.167,44.1667 340.5,43.5C 341.833,38.8333 343.167,34.1667 344.5,29.5C 346.977,29.0508 348.977,29.7175 350.5,31.5C 348.758,35.7254 347.424,40.0587 346.5,44.5 Z"/></g>
<g><path style="opacity:0.998" fill="#2a2f3a" d="M 358.5,48.5 C 358.167,48.5 357.833,48.5 357.5,48.5C 355.847,48.3404 354.514,47.6737 353.5,46.5C 354.881,42.736 356.547,39.0693 358.5,35.5C 362.606,33.7702 364.106,35.1035 363,39.5C 361.487,42.5266 359.987,45.5266 358.5,48.5 Z"/></g>
<g><path style="opacity:1" fill="#fdfdfd" d="M 326.5,44.5 C 330.833,44.5 335.167,44.5 339.5,44.5C 339.5,45.5 339.5,46.5 339.5,47.5C 337.971,50.7536 336.638,54.087 335.5,57.5C 333.473,57.6621 331.473,57.4955 329.5,57C 328.853,55.3905 328.02,53.8905 327,52.5C 322.294,58.8697 321.127,65.8697 323.5,73.5C 319.833,73.5 316.167,73.5 312.5,73.5C 312.086,71.1917 311.753,68.8583 311.5,66.5C 312.731,61.0536 313.731,55.5536 314.5,50C 313.834,48.3313 313.834,46.8313 314.5,45.5C 318.445,44.5091 322.445,44.1758 326.5,44.5 Z"/></g>
<g><path style="opacity:1" fill="#888a90" d="M 312.5,43.5 C 315.625,42.5206 318.958,42.1872 322.5,42.5C 328.523,42.502 334.523,42.8354 340.5,43.5C 341.167,44.1667 341.833,44.8333 342.5,45.5C 342.5,45.8333 342.5,46.1667 342.5,46.5C 341.883,46.3893 341.383,46.056 341,45.5C 340.722,46.4158 340.222,47.0825 339.5,47.5C 339.5,46.5 339.5,45.5 339.5,44.5C 335.167,44.5 330.833,44.5 326.5,44.5C 322.03,43.5139 317.363,43.1805 312.5,43.5 Z"/></g>
<g><path style="opacity:0.584" fill="#bcc0c8" d="M 346.5,44.5 C 348.894,45.0147 351.228,45.6814 353.5,46.5C 354.514,47.6737 355.847,48.3404 357.5,48.5C 357.414,49.4959 357.748,50.3292 358.5,51C 357.552,51.4828 356.552,51.6495 355.5,51.5C 354.756,48.1155 353.423,47.7822 351.5,50.5C 351.5,49.5 351.5,48.5 351.5,47.5C 349.599,47.5668 347.766,47.2335 346,46.5C 344.401,47.0707 343.234,48.0707 342.5,49.5C 342.5,48.5 342.5,47.5 342.5,46.5C 342.5,46.1667 342.5,45.8333 342.5,45.5C 343.959,45.5674 345.292,45.2341 346.5,44.5 Z"/></g>
<g><path style="opacity:0.982" fill="#63863b" d="M 318.5,37.5 C 317.373,38.1217 316.373,38.955 315.5,40C 311.5,40.6667 307.5,40.6667 303.5,40C 302.568,37.3488 301.235,37.0155 299.5,39C 300.517,40.0495 300.684,41.2161 300,42.5C 299.282,41.5494 298.449,41.3828 297.5,42C 298.815,43.3946 298.481,44.3946 296.5,45C 298.134,45.4935 299.801,45.6602 301.5,45.5C 301.351,46.552 301.517,47.552 302,48.5C 302.833,47 304,45.8333 305.5,45C 305.167,44.6667 304.833,44.3333 304.5,44C 305.793,43.51 307.127,43.3433 308.5,43.5C 308.664,46.1873 308.497,48.854 308,51.5C 305.954,51.4513 303.787,51.7846 301.5,52.5C 300.143,54.1856 298.81,55.8523 297.5,57.5C 296.833,57.5 296.5,57.8333 296.5,58.5C 295.222,58.7822 294.222,59.4489 293.5,60.5C 290.039,62.0911 286.372,62.7578 282.5,62.5C 281.729,53.0367 285.396,46.0367 293.5,41.5C 292.833,39.5 292.167,37.5 291.5,35.5C 294.5,34.8333 297.5,34.1667 300.5,33.5C 306.229,26.9121 313.562,23.5788 322.5,23.5C 322.221,28.5826 320.888,33.2493 318.5,37.5 Z"/></g>
<g><path style="opacity:1" fill="#e3e5ed" d="M 351.5,50.5 C 348.139,58.426 344.306,66.0927 340,73.5C 339.506,75.1341 339.34,76.8008 339.5,78.5C 340.5,78.5 341.5,78.5 342.5,78.5C 346.832,69.8367 351.165,61.17 355.5,52.5C 356.209,53.404 357.209,53.7373 358.5,53.5C 358.641,61.7916 359.641,69.9582 361.5,78C 361.472,79.0698 361.139,79.9032 360.5,80.5C 351.887,79.5579 343.221,79.2246 334.5,79.5C 333.833,79.5 333.167,79.5 332.5,79.5C 331.791,78.596 330.791,78.2627 329.5,78.5C 329.232,76.901 329.566,75.5676 330.5,74.5C 330.5,75.5 330.5,76.5 330.5,77.5C 331.5,77.5 332.5,77.5 333.5,77.5C 336.484,68.2125 339.484,58.8792 342.5,49.5C 343.234,48.0707 344.401,47.0707 346,46.5C 347.766,47.2335 349.599,47.5668 351.5,47.5C 351.5,48.5 351.5,49.5 351.5,50.5 Z"/></g>
<g><path style="opacity:0.835" fill="#32353a" d="M 296.5,58.5 C 295.571,62.1268 294.737,65.7934 294,69.5C 293.517,68.552 293.351,67.552 293.5,66.5C 293.5,64.5 293.5,62.5 293.5,60.5C 294.222,59.4489 295.222,58.7822 296.5,58.5 Z"/></g>
<g><path style="opacity:1" fill="#404653" d="M 342.5,46.5 C 342.5,47.5 342.5,48.5 342.5,49.5C 339.484,58.8792 336.484,68.2125 333.5,77.5C 332.5,77.5 331.5,77.5 330.5,77.5C 330.5,76.5 330.5,75.5 330.5,74.5C 332.316,68.9086 333.982,63.2419 335.5,57.5C 336.638,54.087 337.971,50.7536 339.5,47.5C 340.222,47.0825 340.722,46.4158 341,45.5C 341.383,46.056 341.883,46.3893 342.5,46.5 Z"/></g>
<g><path style="opacity:1" fill="#788191" d="M 297.5,57.5 C 297.1,63.829 296.767,70.1624 296.5,76.5C 295.5,76.5 294.5,76.5 293.5,76.5C 293.795,74.2646 293.461,72.2646 292.5,70.5C 292.232,68.901 292.566,67.5676 293.5,66.5C 293.351,67.552 293.517,68.552 294,69.5C 294.737,65.7934 295.571,62.1268 296.5,58.5C 296.5,57.8333 296.833,57.5 297.5,57.5 Z"/></g>
<g><path style="opacity:1" fill="#ebecf4" d="M 308.5,43.5 C 309.833,43.5 311.167,43.5 312.5,43.5C 317.363,43.1805 322.03,43.5139 326.5,44.5C 322.445,44.1758 318.445,44.5091 314.5,45.5C 313.834,46.8313 313.834,48.3313 314.5,50C 313.731,55.5536 312.731,61.0536 311.5,66.5C 311.753,68.8583 312.086,71.1917 312.5,73.5C 316.167,73.5 319.833,73.5 323.5,73.5C 321.127,65.8697 322.294,58.8697 327,52.5C 328.02,53.8905 328.853,55.3905 329.5,57C 331.473,57.4955 333.473,57.6621 335.5,57.5C 333.982,63.2419 332.316,68.9086 330.5,74.5C 329.566,75.5676 329.232,76.901 329.5,78.5C 318.519,77.5393 307.519,76.8726 296.5,76.5C 296.767,70.1624 297.1,63.829 297.5,57.5C 298.81,55.8523 300.143,54.1856 301.5,52.5C 303.787,51.7846 305.954,51.4513 308,51.5C 308.497,48.854 308.664,46.1873 308.5,43.5 Z"/></g>
<g><path style="opacity:1" fill="#444b59" d="M 355.5,51.5 C 355.5,51.8333 355.5,52.1667 355.5,52.5C 351.165,61.17 346.832,69.8367 342.5,78.5C 341.5,78.5 340.5,78.5 339.5,78.5C 339.34,76.8008 339.506,75.1341 340,73.5C 344.306,66.0927 348.139,58.426 351.5,50.5C 353.423,47.7822 354.756,48.1155 355.5,51.5 Z"/></g>
<g><path style="opacity:1" fill="#b6cab6" d="M 293.5,76.5 C 294.5,76.5 295.5,76.5 296.5,76.5C 307.519,76.8726 318.519,77.5393 329.5,78.5C 330.791,78.2627 331.791,78.596 332.5,79.5C 325.443,79.76 318.443,79.4267 311.5,78.5C 308.693,77.3433 306.026,77.3433 303.5,78.5C 300.342,83.6333 298.342,89.2999 297.5,95.5C 296.5,95.5 295.5,95.5 294.5,95.5C 294.784,93.5853 294.451,91.9187 293.5,90.5C 293.5,85.8333 293.5,81.1667 293.5,76.5 Z"/></g>
<g><path style="opacity:1" fill="#93b485" d="M 311.5,78.5 C 318.443,79.4267 325.443,79.76 332.5,79.5C 333.167,79.5 333.833,79.5 334.5,79.5C 334.5,81.5 334.5,83.5 334.5,85.5C 334.5,86.5 334.5,87.5 334.5,88.5C 333.833,86.5 333.167,84.5 332.5,82.5C 326.216,80.6548 319.882,80.3215 313.5,81.5C 312.599,80.7095 311.932,79.7095 311.5,78.5 Z"/></g>
<g><path style="opacity:0.654" fill="#80a03d" d="M 212.5,141.5 C 211.167,141.5 209.833,141.5 208.5,141.5C 203.214,134.375 197.714,127.375 192,120.5C 190.488,121.257 189.154,122.257 188,123.5C 188.164,128.155 188.164,132.821 188,137.5C 187.52,139.133 186.687,140.466 185.5,141.5C 184.167,141.5 182.833,141.5 181.5,141.5C 181.217,140.711 180.717,140.044 180,139.5C 179.333,121.167 179.333,102.833 180,84.5C 182.025,82.2747 184.358,81.9414 187,83.5C 187.333,93.1667 187.667,102.833 188,112.5C 194.746,107.544 201.579,102.71 208.5,98C 213.152,97.6577 214.986,99.8244 214,104.5C 209.077,108.045 204.244,111.712 199.5,115.5C 204.142,121.976 208.975,128.309 214,134.5C 214.833,137.171 214.333,139.504 212.5,141.5 Z"/></g>
<g><path style="opacity:1" fill="#d0ded9" d="M 334.5,79.5 C 343.221,79.2246 351.887,79.5579 360.5,80.5C 359.406,82.8647 358.739,85.3647 358.5,88C 359.632,92.6623 359.632,97.1623 358.5,101.5C 358.334,95.9974 356.834,90.9974 354,86.5C 351.575,88.7531 348.742,89.5864 345.5,89C 345.833,88.6667 346.167,88.3333 346.5,88C 343.45,87.321 340.45,86.4877 337.5,85.5C 336.808,86.0253 336.308,86.6919 336,87.5C 335.722,86.5842 335.222,85.9175 334.5,85.5C 334.5,83.5 334.5,81.5 334.5,79.5 Z"/></g>
<g><path style="opacity:0.785" fill="#010101" d="M 256.5,141.5 C 253.391,141.736 250.391,141.403 247.5,140.5C 243.416,138.908 240.916,135.908 240,131.5C 239.5,123.507 239.334,115.507 239.5,107.5C 233.791,108.133 231.791,105.8 233.5,100.5C 235.396,99.5344 237.396,99.2011 239.5,99.5C 239.334,95.1539 239.501,90.8206 240,86.5C 241.826,82.9626 244.16,82.6293 247,85.5C 247.333,90.1667 247.667,94.8333 248,99.5C 252.736,97.3582 255.902,98.6915 257.5,103.5C 257.471,105.029 256.804,106.196 255.5,107C 253.19,107.497 250.857,107.663 248.5,107.5C 248.334,115.507 248.5,123.507 249,131.5C 251.667,132.167 254.333,132.833 257,133.5C 258.911,136.278 258.745,138.944 256.5,141.5 Z"/></g>
<g><path style="opacity:1" fill="#78a43f" d="M 182.5,84.5 C 183.5,84.5 184.5,84.5 185.5,84.5C 185.333,95.1719 185.5,105.839 186,116.5C 193.845,110.913 201.845,105.579 210,100.5C 213.12,101.593 213.287,103.093 210.5,105C 205.66,107.919 200.994,111.086 196.5,114.5C 201.447,122.113 206.78,129.447 212.5,136.5C 211.652,138.283 210.319,138.783 208.5,138C 203.287,131.076 197.954,124.243 192.5,117.5C 190.201,118.635 188.034,119.968 186,121.5C 185.667,127.167 185.333,132.833 185,138.5C 184,139.833 183,139.833 182,138.5C 181.181,120.426 181.348,102.426 182.5,84.5 Z"/></g>
<g><path style="opacity:0.629" fill="#000000" d="M 222.5,87.5 C 228.293,88.4221 229.627,91.2555 226.5,96C 221.502,97.3297 219.336,95.4964 220,90.5C 220.698,89.3094 221.531,88.3094 222.5,87.5 Z"/></g>
<g><path style="opacity:1" fill="#d2e1d5" d="M 332.5,82.5 C 331.833,82.5 331.5,82.8333 331.5,83.5C 326.527,85.2975 322.194,88.1308 318.5,92C 316.527,92.4955 314.527,92.6621 312.5,92.5C 312.5,91.1667 312.5,89.8333 312.5,88.5C 313.369,86.283 313.702,83.9496 313.5,81.5C 319.882,80.3215 326.216,80.6548 332.5,82.5 Z"/></g>
<g><path style="opacity:1" fill="#c4d6c2" d="M 334.5,85.5 C 335.222,85.9175 335.722,86.5842 336,87.5C 336.308,86.6919 336.808,86.0253 337.5,85.5C 340.45,86.4877 343.45,87.321 346.5,88C 346.167,88.3333 345.833,88.6667 345.5,89C 348.742,89.5864 351.575,88.7531 354,86.5C 356.834,90.9974 358.334,95.9974 358.5,101.5C 357.974,103.23 356.974,104.564 355.5,105.5C 355.511,101.648 353.511,99.8149 349.5,100C 347.748,97.6663 345.581,95.8329 343,94.5C 342.506,92.8659 342.34,91.1992 342.5,89.5C 340.857,89.5198 339.524,88.8532 338.5,87.5C 338.466,90.9698 339.8,94.1364 342.5,97C 342,97.5 341.5,98 341,98.5C 339,97.8333 337,97.1667 335,96.5C 334.506,94.8659 334.34,93.1992 334.5,91.5C 334.5,90.5 334.5,89.5 334.5,88.5C 334.5,87.5 334.5,86.5 334.5,85.5 Z"/></g>
<g><path style="opacity:0.746" fill="#000000" d="M 225.5,141.5 C 224.167,141.5 222.833,141.5 221.5,141.5C 221.013,140.527 220.513,139.527 220,138.5C 219.333,125.833 219.333,113.167 220,100.5C 222.503,96.7099 225.17,96.7099 228,100.5C 228.667,113.167 228.667,125.833 228,138.5C 227.302,139.691 226.469,140.691 225.5,141.5 Z"/></g>
<g><path style="opacity:0.806" fill="#040504" d="M 292.5,70.5 C 293.461,72.2646 293.795,74.2646 293.5,76.5C 293.5,81.1667 293.5,85.8333 293.5,90.5C 293.237,94.6002 293.57,98.6002 294.5,102.5C 294.334,106.846 294.501,111.179 295,115.5C 295.21,117.058 295.71,118.391 296.5,119.5C 296.763,124.77 297.763,129.77 299.5,134.5C 299.5,135.167 299.5,135.833 299.5,136.5C 300.167,138.5 300.833,140.5 301.5,142.5C 300.833,142.167 300.167,141.833 299.5,141.5C 298.671,138.185 297.838,134.852 297,131.5C 294.349,136.657 290.182,139.657 284.5,140.5C 281.167,140.5 277.833,140.5 274.5,140.5C 261.672,134.892 257.172,125.225 261,111.5C 268.373,97.9677 278.706,94.9677 292,102.5C 291.346,91.8425 291.513,81.1759 292.5,70.5 Z M 275.5,107.5 C 287.87,106.7 293.036,112.367 291,124.5C 285.914,133.419 279.248,134.753 271,128.5C 266.608,120.105 268.108,113.105 275.5,107.5 Z"/></g>
<g><path style="opacity:0.627" fill="#80a03d" d="M 90.5,141.5 C 88.8333,141.5 87.1667,141.5 85.5,141.5C 84.9101,140.234 84.4101,138.901 84,137.5C 83.6667,129.167 83.3333,120.833 83,112.5C 77.606,105.679 72.606,106.013 68,113.5C 67.6667,122.167 67.3333,130.833 67,139.5C 66.2828,140.044 65.7828,140.711 65.5,141.5C 64.1667,141.5 62.8333,141.5 61.5,141.5C 59.738,133.094 58.9047,124.427 59,115.5C 56.5343,108.349 52.0343,106.516 45.5,110C 44.5399,111.419 43.7065,112.919 43,114.5C 42.8057,123.577 42.3057,132.577 41.5,141.5C 39.8333,141.5 38.1667,141.5 36.5,141.5C 36.2172,140.711 35.7172,140.044 35,139.5C 34.3333,126.833 34.3333,114.167 35,101.5C 37.6153,98.9299 40.282,98.9299 43,101.5C 50.4683,98.1638 57.3016,99.1638 63.5,104.5C 70.2485,98.9008 77.5818,98.0675 85.5,102C 88.4905,104.99 90.6572,108.49 92,112.5C 92.6667,121.5 92.6667,130.5 92,139.5C 91.2828,140.044 90.7828,140.711 90.5,141.5 Z"/></g>
<g><path style="opacity:1" fill="#7ba23e" d="M 121.5,141.5 C 118.167,141.5 114.833,141.5 111.5,141.5C 98.7177,135.936 93.8843,126.269 97,112.5C 103.642,98.8413 113.809,95.3413 127.5,102C 138.26,112.457 139.26,123.79 130.5,136C 127.737,138.374 124.737,140.208 121.5,141.5 Z M 112.5,107.5 C 124.974,107.466 129.808,113.466 127,125.5C 121.787,133.384 115.287,134.55 107.5,129C 102.273,120.143 103.94,112.977 112.5,107.5 Z"/></g>
<g><path style="opacity:1" fill="#7ba33e" d="M 164.5,141.5 C 161.167,141.5 157.833,141.5 154.5,141.5C 142.581,136 137.748,126.666 140,113.5C 145.961,99.3958 156.128,95.2291 170.5,101C 172,102.5 173.5,104 175,105.5C 175.652,108.869 174.319,110.869 171,111.5C 168.62,110.799 166.453,109.633 164.5,108C 154.722,106.105 149.055,110.105 147.5,120C 148.922,129.366 154.255,133.366 163.5,132C 165.983,130.674 168.483,129.507 171,128.5C 174.319,129.131 175.652,131.131 175,134.5C 172.002,137.738 168.502,140.071 164.5,141.5 Z"/></g>
<g><path style="opacity:1" fill="#78a43f" d="M 37.5,101.5 C 39.7761,101.756 40.9428,103.09 41,105.5C 49.4339,99.5382 56.9339,100.538 63.5,108.5C 71.6582,99.2162 79.8249,99.2162 88,108.5C 88.9734,110.392 89.6401,112.392 90,114.5C 90.6667,122.5 90.6667,130.5 90,138.5C 89,139.833 88,139.833 87,138.5C 86.6667,130.5 86.3333,122.5 86,114.5C 83.3604,106.763 78.1937,104.263 70.5,107C 69.3333,108.167 68.1667,109.333 67,110.5C 65.72,119.733 65.0533,129.066 65,138.5C 64,139.833 63,139.833 62,138.5C 61.9146,129.425 61.2479,120.425 60,111.5C 56.5444,105.794 51.7111,104.294 45.5,107C 43.3834,108.731 41.8834,110.898 41,113.5C 40.6667,121.833 40.3333,130.167 40,138.5C 39.2825,139.451 38.4491,139.617 37.5,139C 36.1759,126.5 36.1759,114 37.5,101.5 Z"/></g>
<g><path style="opacity:1" fill="#a4bf8a" d="M 355.5,105.5 C 353.78,106.308 352.113,107.308 350.5,108.5C 347.316,106.586 343.649,105.92 339.5,106.5C 339.5,105.5 339.5,104.5 339.5,103.5C 335.584,102.961 332.584,104.294 330.5,107.5C 328.824,106.817 328.157,105.483 328.5,103.5C 330.946,99.7216 332.946,95.7216 334.5,91.5C 334.34,93.1992 334.506,94.8659 335,96.5C 337,97.1667 339,97.8333 341,98.5C 341.5,98 342,97.5 342.5,97C 339.8,94.1364 338.466,90.9698 338.5,87.5C 339.524,88.8532 340.857,89.5198 342.5,89.5C 342.34,91.1992 342.506,92.8659 343,94.5C 345.581,95.8329 347.748,97.6663 349.5,100C 353.511,99.8149 355.511,101.648 355.5,105.5 Z"/></g>
<g><path style="opacity:1" fill="#608d41" d="M 311.5,78.5 C 311.932,79.7095 312.599,80.7095 313.5,81.5C 313.702,83.9496 313.369,86.283 312.5,88.5C 311.772,92.2739 309.772,95.2739 306.5,97.5C 307.5,97.8333 308.5,98.1667 309.5,98.5C 317.522,94.4907 324.855,89.4907 331.5,83.5C 331.5,82.8333 331.833,82.5 332.5,82.5C 333.167,84.5 333.833,86.5 334.5,88.5C 334.5,89.5 334.5,90.5 334.5,91.5C 332.946,95.7216 330.946,99.7216 328.5,103.5C 326.188,105.146 324.188,107.146 322.5,109.5C 321.833,109.5 321.167,109.5 320.5,109.5C 319.504,109.586 318.671,109.252 318,108.5C 317.667,109.5 317.333,110.5 317,111.5C 316.097,110.299 314.931,109.465 313.5,109C 313.833,108.667 314.167,108.333 314.5,108C 311.47,106.716 308.47,105.549 305.5,104.5C 305.33,103.178 305.663,102.011 306.5,101C 302.848,100.501 299.182,100.335 295.5,100.5C 295.289,95.913 296.789,95.2464 300,98.5C 304.683,98.1853 305.517,96.3519 302.5,93C 304.016,90.9758 305.349,88.8091 306.5,86.5C 305.384,86.598 304.384,86.098 303.5,85C 306.404,82.9226 306.07,81.5893 302.5,81C 303.252,80.3292 303.586,79.4959 303.5,78.5C 306.026,77.3433 308.693,77.3433 311.5,78.5 Z"/></g>
<g><path style="opacity:1" fill="#a6c29b" d="M 331.5,83.5 C 324.855,89.4907 317.522,94.4907 309.5,98.5C 308.5,98.1667 307.5,97.8333 306.5,97.5C 309.772,95.2739 311.772,92.2739 312.5,88.5C 312.5,89.8333 312.5,91.1667 312.5,92.5C 314.527,92.6621 316.527,92.4955 318.5,92C 322.194,88.1308 326.527,85.2975 331.5,83.5 Z"/></g>
<g><path style="opacity:1" fill="#759d55" d="M 303.5,78.5 C 303.586,79.4959 303.252,80.3292 302.5,81C 306.07,81.5893 306.404,82.9226 303.5,85C 304.384,86.098 305.384,86.598 306.5,86.5C 305.349,88.8091 304.016,90.9758 302.5,93C 305.517,96.3519 304.683,98.1853 300,98.5C 296.789,95.2464 295.289,95.913 295.5,100.5C 299.182,100.335 302.848,100.501 306.5,101C 305.663,102.011 305.33,103.178 305.5,104.5C 308.47,105.549 311.47,106.716 314.5,108C 314.167,108.333 313.833,108.667 313.5,109C 314.931,109.465 316.097,110.299 317,111.5C 317.333,110.5 317.667,109.5 318,108.5C 318.671,109.252 319.504,109.586 320.5,109.5C 316.579,112.927 311.913,114.26 306.5,113.5C 305.347,114.313 305.347,115.313 306.5,116.5C 306,116.833 305.5,117.167 305,117.5C 302.815,117.302 301.315,116.302 300.5,114.5C 301.497,114.53 302.164,114.03 302.5,113C 301.375,111.037 300.041,109.204 298.5,107.5C 300.133,105.356 302.133,103.689 304.5,102.5C 300.848,101.655 297.514,101.655 294.5,102.5C 293.57,98.6002 293.237,94.6002 293.5,90.5C 294.451,91.9187 294.784,93.5853 294.5,95.5C 295.5,95.5 296.5,95.5 297.5,95.5C 298.342,89.2999 300.342,83.6333 303.5,78.5 Z"/></g>
<g><path style="opacity:1" fill="#82aa5f" d="M 350.5,108.5 C 348.473,110.18 346.139,111.347 343.5,112C 342.748,112.671 342.414,113.504 342.5,114.5C 340.777,115.8 338.61,116.467 336,116.5C 332.523,116.672 329.356,116.006 326.5,114.5C 327.089,111.724 328.422,109.39 330.5,107.5C 332.584,104.294 335.584,102.961 339.5,103.5C 339.5,104.5 339.5,105.5 339.5,106.5C 343.649,105.92 347.316,106.586 350.5,108.5 Z"/></g>
<g><path style="opacity:1" fill="#e6ecf0" d="M 357.5,48.5 C 357.833,48.5 358.167,48.5 358.5,48.5C 360.627,49.3976 361.794,51.0643 362,53.5C 365.299,81.0687 362.132,107.735 352.5,133.5C 352.5,132.5 352.5,131.5 352.5,130.5C 353.562,129.425 353.562,128.425 352.5,127.5C 350.869,129.297 348.869,130.464 346.5,131C 340.628,131.607 334.962,132.774 329.5,134.5C 329.477,132.073 328.977,129.74 328,127.5C 325.853,128.476 323.686,128.309 321.5,127C 323.333,125.212 325.333,125.046 327.5,126.5C 328.478,126.023 329.311,125.357 330,124.5C 331.118,126.765 331.951,129.099 332.5,131.5C 335.754,131.206 338.421,129.873 340.5,127.5C 343.068,124.867 344.734,121.7 345.5,118C 344.629,116.636 343.629,115.47 342.5,114.5C 342.414,113.504 342.748,112.671 343.5,112C 346.139,111.347 348.473,110.18 350.5,108.5C 352.113,107.308 353.78,106.308 355.5,105.5C 356.974,104.564 357.974,103.23 358.5,101.5C 359.632,97.1623 359.632,92.6623 358.5,88C 358.739,85.3647 359.406,82.8647 360.5,80.5C 361.139,79.9032 361.472,79.0698 361.5,78C 359.641,69.9582 358.641,61.7916 358.5,53.5C 357.209,53.7373 356.209,53.404 355.5,52.5C 355.5,52.1667 355.5,51.8333 355.5,51.5C 356.552,51.6495 357.552,51.4828 358.5,51C 357.748,50.3292 357.414,49.4959 357.5,48.5 Z"/></g>
<g><path style="opacity:1" fill="#9eb9a2" d="M 300.5,114.5 C 298.354,114.696 298.188,115.696 300,117.5C 301.011,118.337 302.178,118.67 303.5,118.5C 303.604,120.703 304.27,122.703 305.5,124.5C 303.091,122.633 300.758,120.466 298.5,118C 297.184,117.472 296.517,117.972 296.5,119.5C 295.71,118.391 295.21,117.058 295,115.5C 294.501,111.179 294.334,106.846 294.5,102.5C 297.514,101.655 300.848,101.655 304.5,102.5C 302.133,103.689 300.133,105.356 298.5,107.5C 300.041,109.204 301.375,111.037 302.5,113C 302.164,114.03 301.497,114.53 300.5,114.5 Z"/></g>
<g><path style="opacity:1" fill="#a5bc91" d="M 326.5,114.5 C 329.356,116.006 332.523,116.672 336,116.5C 338.61,116.467 340.777,115.8 342.5,114.5C 343.629,115.47 344.629,116.636 345.5,118C 344.734,121.7 343.068,124.867 340.5,127.5C 340.598,125.118 340.598,122.618 340.5,120C 337.907,119.463 335.407,118.63 333,117.5C 330.17,119.158 327.67,118.825 325.5,116.5C 325.328,115.508 325.662,114.842 326.5,114.5 Z"/></g>
<g><path style="opacity:1" fill="#a8bbb4" d="M 320.5,109.5 C 321.167,109.5 321.833,109.5 322.5,109.5C 322.649,110.552 322.483,111.552 322,112.5C 319.477,116.233 316.977,119.899 314.5,123.5C 314.649,122.448 314.483,121.448 314,120.5C 311.63,117.961 309.13,115.628 306.5,113.5C 311.913,114.26 316.579,112.927 320.5,109.5 Z"/></g>
<g><path style="opacity:1" fill="#2a3139" d="M 328.5,103.5 C 328.157,105.483 328.824,106.817 330.5,107.5C 328.422,109.39 327.089,111.724 326.5,114.5C 325.662,114.842 325.328,115.508 325.5,116.5C 322.723,118.951 320.723,121.951 319.5,125.5C 318.442,126.6 317.608,127.934 317,129.5C 315.331,127.831 314.498,125.831 314.5,123.5C 316.977,119.899 319.477,116.233 322,112.5C 322.483,111.552 322.649,110.552 322.5,109.5C 324.188,107.146 326.188,105.146 328.5,103.5 Z"/></g>
<g><path style="opacity:1" fill="#85a97e" d="M 306.5,113.5 C 309.13,115.628 311.63,117.961 314,120.5C 314.483,121.448 314.649,122.448 314.5,123.5C 314.498,125.831 315.331,127.831 317,129.5C 317.608,127.934 318.442,126.6 319.5,125.5C 319.351,126.552 319.517,127.552 320,128.5C 325.412,130.625 325.579,132.625 320.5,134.5C 314.924,131.889 309.924,128.556 305.5,124.5C 304.27,122.703 303.604,120.703 303.5,118.5C 302.178,118.67 301.011,118.337 300,117.5C 298.188,115.696 298.354,114.696 300.5,114.5C 301.315,116.302 302.815,117.302 305,117.5C 305.5,117.167 306,116.833 306.5,116.5C 305.347,115.313 305.347,114.313 306.5,113.5 Z"/></g>
<g><path style="opacity:1" fill="#cddeda" d="M 325.5,116.5 C 327.67,118.825 330.17,119.158 333,117.5C 335.407,118.63 337.907,119.463 340.5,120C 340.598,122.618 340.598,125.118 340.5,127.5C 338.421,129.873 335.754,131.206 332.5,131.5C 331.951,129.099 331.118,126.765 330,124.5C 329.311,125.357 328.478,126.023 327.5,126.5C 325.333,125.046 323.333,125.212 321.5,127C 323.686,128.309 325.853,128.476 328,127.5C 328.977,129.74 329.477,132.073 329.5,134.5C 334.962,132.774 340.628,131.607 346.5,131C 348.869,130.464 350.869,129.297 352.5,127.5C 353.562,128.425 353.562,129.425 352.5,130.5C 351.662,130.842 351.328,131.508 351.5,132.5C 344.474,135.94 336.974,137.273 329,136.5C 324.5,136.333 320,136.167 315.5,136C 310.047,134.764 304.713,133.264 299.5,131.5C 299.5,132.5 299.5,133.5 299.5,134.5C 297.763,129.77 296.763,124.77 296.5,119.5C 296.517,117.972 297.184,117.472 298.5,118C 300.758,120.466 303.091,122.633 305.5,124.5C 309.924,128.556 314.924,131.889 320.5,134.5C 325.579,132.625 325.412,130.625 320,128.5C 319.517,127.552 319.351,126.552 319.5,125.5C 320.723,121.951 322.723,118.951 325.5,116.5 Z"/></g>
<g><path style="opacity:1" fill="#e0eef2" d="M 351.5,132.5 C 349.889,139.256 346.222,144.422 340.5,148C 330.153,151.293 319.819,151.293 309.5,148C 308.331,145.993 307.665,143.827 307.5,141.5C 305.856,141.286 304.356,141.62 303,142.5C 302.939,139.723 301.772,137.723 299.5,136.5C 299.5,135.833 299.5,135.167 299.5,134.5C 299.5,133.5 299.5,132.5 299.5,131.5C 304.713,133.264 310.047,134.764 315.5,136C 320,136.167 324.5,136.333 329,136.5C 336.974,137.273 344.474,135.94 351.5,132.5 Z"/></g>
<g><path style="opacity:0.263" fill="#8d8d90" d="M 247.5,140.5 C 250.391,141.403 253.391,141.736 256.5,141.5C 257.613,142.946 257.78,144.613 257,146.5C 254.595,147.274 252.095,147.774 249.5,148C 247.963,149.11 247.297,150.61 247.5,152.5C 245.167,152.5 242.833,152.5 240.5,152.5C 240.796,147.233 243.129,143.233 247.5,140.5 Z"/></g>
<g><path style="opacity:0.295" fill="#9a9a9d" d="M 274.5,140.5 C 277.833,140.5 281.167,140.5 284.5,140.5C 291.468,142.801 296.134,147.468 298.5,154.5C 296.167,154.5 293.833,154.5 291.5,154.5C 285.984,146.964 279.318,145.797 271.5,151C 269.779,152.944 268.446,155.11 267.5,157.5C 265.167,157.5 262.833,157.5 260.5,157.5C 262.304,149.372 266.971,143.705 274.5,140.5 Z"/></g>
<g><path style="opacity:0.313" fill="#8d8d90" d="M 111.5,141.5 C 114.833,141.5 118.167,141.5 121.5,141.5C 124.704,142.383 127.371,144.05 129.5,146.5C 120.682,147.493 111.682,147.827 102.5,147.5C 104.63,144.263 107.63,142.263 111.5,141.5 Z"/></g>
<g><path style="opacity:0.269" fill="#98989b" d="M 154.5,141.5 C 157.833,141.5 161.167,141.5 164.5,141.5C 169.201,142.334 172.535,144.834 174.5,149C 173.792,151.723 172.125,152.723 169.5,152C 160.032,145.946 152.699,147.779 147.5,157.5C 145.167,157.5 142.833,157.5 140.5,157.5C 141.991,149.345 146.658,144.011 154.5,141.5 Z"/></g>
<g><path style="opacity:0.253" fill="#a5a5a8" d="M 129.5,146.5 C 133.075,149.65 135.075,153.65 135.5,158.5C 133.05,158.298 130.717,158.631 128.5,159.5C 125.371,148.775 118.704,145.942 108.5,151C 106.266,152.638 104.933,154.805 104.5,157.5C 102.167,157.5 99.8333,157.5 97.5,157.5C 97.5919,153.316 99.2586,149.983 102.5,147.5C 111.682,147.827 120.682,147.493 129.5,146.5 Z"/></g>
<g><path style="opacity:0.259" fill="#959598" d="M 36.5,141.5 C 38.1667,141.5 39.8333,141.5 41.5,141.5C 42.2436,145.119 42.577,148.785 42.5,152.5C 40.283,151.631 37.9496,151.298 35.5,151.5C 35.2529,148.061 35.5863,144.728 36.5,141.5 Z"/></g>
<g><path style="opacity:0.749" fill="#acb7b9" d="M 352.5,130.5 C 352.5,131.5 352.5,132.5 352.5,133.5C 351.265,138.212 349.265,142.545 346.5,146.5C 339.402,150.519 331.735,152.519 323.5,152.5C 316.776,151.367 310.109,150.034 303.5,148.5C 303.296,146.315 302.63,144.315 301.5,142.5C 300.833,140.5 300.167,138.5 299.5,136.5C 301.772,137.723 302.939,139.723 303,142.5C 304.356,141.62 305.856,141.286 307.5,141.5C 307.665,143.827 308.331,145.993 309.5,148C 319.819,151.293 330.153,151.293 340.5,148C 346.222,144.422 349.889,139.256 351.5,132.5C 351.328,131.508 351.662,130.842 352.5,130.5 Z"/></g>
<g><path style="opacity:0.228" fill="#e1ebf0" d="M 299.5,141.5 C 300.167,141.833 300.833,142.167 301.5,142.5C 302.63,144.315 303.296,146.315 303.5,148.5C 310.109,150.034 316.776,151.367 323.5,152.5C 331.735,152.519 339.402,150.519 346.5,146.5C 346.548,149.292 345.215,151.125 342.5,152C 327.465,155.977 312.798,154.977 298.5,149C 294.621,145.928 294.954,143.428 299.5,141.5 Z"/></g>
<g><path style="opacity:0.171" fill="#a0a0a3" d="M 221.5,141.5 C 222.833,141.5 224.167,141.5 225.5,141.5C 226.117,141.611 226.617,141.944 227,142.5C 227.499,147.489 227.666,152.489 227.5,157.5C 225.167,157.5 222.833,157.5 220.5,157.5C 220.218,152.073 220.551,146.74 221.5,141.5 Z"/></g>
<g><path style="opacity:0.171" fill="#a9a9ab" d="M 61.5,141.5 C 62.8333,141.5 64.1667,141.5 65.5,141.5C 66.4491,146.74 66.7825,152.073 66.5,157.5C 64.1667,157.5 61.8333,157.5 59.5,157.5C 59.3342,152.821 59.5008,148.155 60,143.5C 60.2784,142.584 60.7784,141.918 61.5,141.5 Z"/></g>
<g><path style="opacity:0.138" fill="#a8a8ab" d="M 85.5,141.5 C 87.1667,141.5 88.8333,141.5 90.5,141.5C 91.4491,146.74 91.7825,152.073 91.5,157.5C 89.1667,157.5 86.8333,157.5 84.5,157.5C 84.2175,152.073 84.5509,146.74 85.5,141.5 Z"/></g>
<g><path style="opacity:0.19" fill="#9b9b9e" d="M 181.5,141.5 C 182.833,141.5 184.167,141.5 185.5,141.5C 186.117,141.611 186.617,141.944 187,142.5C 187.499,147.489 187.666,152.489 187.5,157.5C 185.167,157.5 182.833,157.5 180.5,157.5C 180.179,151.974 180.512,146.64 181.5,141.5 Z"/></g>
<g><path style="opacity:0.089" fill="#c2c2c3" d="M 35.5,151.5 C 37.9496,151.298 40.283,151.631 42.5,152.5C 42.5,155.5 42.5,158.5 42.5,161.5C 40.1667,160.167 37.8333,160.167 35.5,161.5C 35.5,158.167 35.5,154.833 35.5,151.5 Z"/></g>
<g><path style="opacity:0.17" fill="#a4a4a6" d="M 208.5,141.5 C 209.833,141.5 211.167,141.5 212.5,141.5C 213.613,142.946 213.78,144.613 213,146.5C 209.303,151.685 205.47,156.685 201.5,161.5C 198.612,162.01 196.279,161.344 194.5,159.5C 198.815,153.19 203.482,147.19 208.5,141.5 Z"/></g>
<g><path style="opacity:0.154" fill="#c2c2c4" d="M 180.5,157.5 C 182.833,157.5 185.167,157.5 187.5,157.5C 188.742,159.25 190.242,160.917 192,162.5C 192.852,161.429 193.685,160.429 194.5,159.5C 196.279,161.344 198.612,162.01 201.5,161.5C 198.195,164.233 198.195,166.567 201.5,168.5C 198.167,169.167 194.833,169.833 191.5,170.5C 190.518,169.859 189.518,169.193 188.5,168.5C 187.702,168.957 187.369,169.624 187.5,170.5C 185.167,170.5 182.833,170.5 180.5,170.5C 180.5,166.167 180.5,161.833 180.5,157.5 Z"/></g>
<g><path style="opacity:0.093" fill="#d8d8da" d="M 291.5,154.5 C 293.833,154.5 296.167,154.5 298.5,154.5C 300.063,159.475 299.729,164.309 297.5,169C 295.527,169.495 293.527,169.662 291.5,169.5C 292.69,164.477 292.69,159.477 291.5,154.5 Z"/></g>
<g><path style="opacity:0.137" fill="#bebec0" d="M 240.5,152.5 C 242.833,152.5 245.167,152.5 247.5,152.5C 247.5,157.833 247.5,163.167 247.5,168.5C 245.167,168.5 242.833,168.5 240.5,168.5C 240.5,163.167 240.5,157.833 240.5,152.5 Z"/></g>
<g><path style="opacity:0.062" fill="#e0e0e2" d="M 140.5,157.5 C 142.833,157.5 145.167,157.5 147.5,157.5C 146.626,161.18 146.959,164.846 148.5,168.5C 145.679,169.971 143.179,169.637 141,167.5C 139.773,164.126 139.606,160.792 140.5,157.5 Z"/></g>
<g><path style="opacity:0.041" fill="#ebebec" d="M 42.5,161.5 C 42.043,164.024 42.043,166.691 42.5,169.5C 40.1667,169.5 37.8333,169.5 35.5,169.5C 35.5,166.833 35.5,164.167 35.5,161.5C 37.8333,160.167 40.1667,160.167 42.5,161.5 Z"/></g>
<g><path style="opacity:0.051" fill="#e1e1e2" d="M 84.5,157.5 C 86.8333,157.5 89.1667,157.5 91.5,157.5C 91.6653,161.182 91.4986,164.848 91,168.5C 88.9592,169.423 86.7925,169.756 84.5,169.5C 84.5,165.5 84.5,161.5 84.5,157.5 Z"/></g>
<g><path style="opacity:0.052" fill="#e4e4e5" d="M 97.5,157.5 C 99.8333,157.5 102.167,157.5 104.5,157.5C 103.087,161.453 103.42,165.286 105.5,169C 98.7538,171.091 95.7538,168.591 96.5,161.5C 96.5108,159.955 96.8442,158.622 97.5,157.5 Z"/></g>
<g><path style="opacity:0.063" fill="#e5e5e6" d="M 135.5,158.5 C 135.665,161.518 135.498,164.518 135,167.5C 132.821,169.637 130.321,169.971 127.5,168.5C 128.407,165.579 128.74,162.579 128.5,159.5C 130.717,158.631 133.05,158.298 135.5,158.5 Z"/></g>
<g><path style="opacity:0.019" fill="#e8e8e8" d="M 59.5,157.5 C 61.8333,157.5 64.1667,157.5 66.5,157.5C 66.5,161.5 66.5,165.5 66.5,169.5C 64.1667,169.5 61.8333,169.5 59.5,169.5C 60.3659,165.399 60.3659,161.399 59.5,157.5 Z"/></g>
<g><path style="opacity:0.022" fill="#e8e8e9" d="M 260.5,157.5 C 262.833,157.5 265.167,157.5 267.5,157.5C 267.505,161.534 267.838,165.534 268.5,169.5C 266.208,169.756 264.041,169.423 262,168.5C 260.663,164.974 260.163,161.308 260.5,157.5 Z"/></g>
<g><path style="opacity:0.065" fill="#dadadb" d="M 220.5,157.5 C 222.833,157.5 225.167,157.5 227.5,157.5C 227.5,163.833 227.5,170.167 227.5,176.5C 225.167,176.5 222.833,176.5 220.5,176.5C 220.5,170.167 220.5,163.833 220.5,157.5 Z"/></g>
<g><path style="opacity:0.045" fill="#ebebec" d="M 180.5,170.5 C 182.833,170.5 185.167,170.5 187.5,170.5C 187.665,173.518 187.498,176.518 187,179.5C 184.959,180.423 182.792,180.756 180.5,180.5C 180.5,177.167 180.5,173.833 180.5,170.5 Z"/></g>
<g><path style="opacity:0.048" fill="#e9e9e9" d="M 201.5,168.5 C 205.177,171.336 209.011,174.003 213,176.5C 214.08,179.237 213.246,180.904 210.5,181.5C 203.686,178.595 197.352,174.929 191.5,170.5C 194.833,169.833 198.167,169.167 201.5,168.5 Z"/></g>
<g><path style="opacity:0.035" fill="#efefef" d="M 240.5,168.5 C 242.833,168.5 245.167,168.5 247.5,168.5C 247.5,170.5 247.5,172.5 247.5,174.5C 250.187,174.336 252.854,174.503 255.5,175C 256.517,176.049 256.684,177.216 256,178.5C 248.667,179.833 241.333,179.833 234,178.5C 233.316,177.216 233.483,176.049 234.5,175C 236.473,174.505 238.473,174.338 240.5,174.5C 240.5,172.5 240.5,170.5 240.5,168.5 Z"/></g>
</svg>
