<?xml version="1.0" encoding="UTF-8"?>
<!DOCTYPE svg PUBLIC "-//W3C//DTD SVG 1.1//EN" "http://www.w3.org/Graphics/SVG/1.1/DTD/svg11.dtd">
<svg xmlns="http://www.w3.org/2000/svg" version="1.1" width="300px" height="300px" style="shape-rendering:geometricPrecision; text-rendering:geometricPrecision; image-rendering:optimizeQuality; fill-rule:evenodd; clip-rule:evenodd" xmlns:xlink="http://www.w3.org/1999/xlink">
<g><path style="opacity:0.996" fill="#6ab343" d="M 146.5,7.5 C 181.361,14.6058 216.027,22.6058 250.5,31.5C 251.5,57.8249 251.833,84.1582 251.5,110.5C 233.5,110.5 215.5,110.5 197.5,110.5C 197.5,113.833 197.5,117.167 197.5,120.5C 215.41,120.174 233.243,120.508 251,121.5C 258.611,168.448 246.445,209.114 214.5,243.5C 195.706,263.281 174.039,279.281 149.5,291.5C 114.027,274.532 85.527,249.532 64,216.5C 56.6504,204.458 51.6504,191.458 49,177.5C 47.6095,158.534 47.1095,139.534 47.5,120.5C 65.5,120.5 83.5,120.5 101.5,120.5C 101.5,117.167 101.5,113.833 101.5,110.5C 83.5,110.5 65.5,110.5 47.5,110.5C 47.1669,84.1582 47.5002,57.8249 48.5,31.5C 81.3298,23.6574 113.997,15.6574 146.5,7.5 Z M 140.5,80.5 C 170.51,78.6816 185.344,92.6816 185,122.5C 180.06,140.566 168.227,150.566 149.5,152.5C 124.446,149.051 112.613,134.717 114,109.5C 117.827,95.1767 126.66,85.51 140.5,80.5 Z M 148.5,102.5 C 153.371,103.244 153.705,104.911 149.5,107.5C 146.031,106.431 145.698,104.764 148.5,102.5 Z"/></g>
<g><path style="opacity:0.951" fill="#6ab343" d="M 144.5,98.5 C 155.596,96.1057 160.43,100.439 159,111.5C 158.313,113.555 157.146,115.221 155.5,116.5C 154.669,123.142 154.169,129.809 154,136.5C 151.719,140.285 149.552,140.119 147.5,136C 147.95,134.715 148.617,133.548 149.5,132.5C 146.92,130.287 146.92,128.12 149.5,126C 146.117,121.356 142.951,116.522 140,111.5C 138.658,106.019 140.158,101.686 144.5,98.5 Z M 148.5,102.5 C 145.698,104.764 146.031,106.431 149.5,107.5C 153.705,104.911 153.371,103.244 148.5,102.5 Z"/></g>
</svg>
